<?xml version="1.0" encoding="UTF-8" standalone="no"?><!DOCTYPE svg PUBLIC "-//W3C//DTD SVG 1.1//EN" "http://www.w3.org/Graphics/SVG/1.1/DTD/svg11.dtd"><svg width="100%" height="100%" viewBox="0 0 417 412" version="1.1" xmlns="http://www.w3.org/2000/svg" xmlns:xlink="http://www.w3.org/1999/xlink" xml:space="preserve" style="fill-rule:evenodd;clip-rule:evenodd;stroke-linecap:round;stroke-linejoin:round;stroke-miterlimit:1.41421;"><path d="M7.652,101.457c-11.515,-45.732 -3.518,-98.836 101.23,-98.836c104.747,0 100.171,103.398 100.171,135.957c0,32.56 -6.76,-135.332 102.947,-135.186c109.707,0.147 107.765,54.298 96.589,99.036c-16.844,67.426 -197.653,305.519 -197.653,305.519c0,0 -186.275,-238.935 -203.284,-306.49Z" style="fill:#f00f0f;stroke-width:7px;stroke:#000;"/><g><path d="M78.924,92.304c5.21,0 14.218,5.406 18.235,7.418c3.433,1.72 7.339,0.599 10.879,1.485c13.595,3.402 28.676,3.17 41.788,6.923c2.46,0.704 19.392,1.896 19.689,2.193c3.438,3.438 -6.728,14.433 -8.593,16.298c-7.259,7.259 -13.681,13.073 -26.674,13.073c-1.823,0 -6.392,0.912 -7.913,0c-6.495,-3.897 -15.292,-5.559 -19.995,-12.361c-4.731,-6.842 -6.549,-13.741 -10.237,-21.144c-0.998,-2.004 -5.34,-4.631 -7.268,-5.597c-3.318,-1.662 -2.969,-4.708 -4.943,-6.675c-3.912,-3.898 -10.239,-3.651 -16.454,-3.651" style="fill:#fbe601;stroke-width:7px;stroke:#000;"/><ellipse cx="132.414" cy="123.734" rx="7.47" ry="7.235" style="fill:#fff;stroke-width:7px;stroke:#000;"/></g><g><path d="M333.29,92.231c-5.21,0 -14.218,5.405 -18.235,7.417c-3.433,1.72 -7.339,0.599 -10.88,1.485c-13.594,3.402 -28.675,3.171 -41.787,6.923c-2.46,0.704 -19.392,1.896 -19.689,2.193c-3.438,3.438 6.728,14.433 8.593,16.298c7.259,7.259 13.681,13.073 26.674,13.073c1.823,0 6.392,0.912 7.913,0c6.494,-3.897 15.292,-5.558 19.995,-12.361c4.731,-6.842 6.549,-13.741 10.237,-21.144c0.998,-2.004 5.34,-4.631 7.268,-5.596c3.318,-1.663 2.969,-4.709 4.943,-6.676c3.912,-3.898 10.239,-3.65 16.454,-3.65" style="fill:#fbe601;stroke-width:7px;stroke:#000;"/><ellipse cx="279.8" cy="123.66" rx="7.47" ry="7.235" style="fill:#fff;stroke-width:7px;stroke:#000;"/></g><g><path d="M130.917,205.08c0,0 38.924,25.595 58.224,28.531c19.301,2.936 40.506,-2.933 52.717,-6.584c12.211,-3.65 48.882,-16.909 48.882,-16.909c0,0 -14.933,8.399 -42.849,46.077c-27.917,37.678 -48.771,17.368 -64.722,4.443c-15.95,-12.926 -34.088,-30.097 -35.512,-35.14c-1.423,-5.043 -16.74,-20.418 -16.74,-20.418Z" style="fill:#fff;stroke-width:7px;stroke:#000;"/><path d="M213.266,235.082l3.155,42.751l-31.467,-46.205l-9.305,17.157l-6.926,-23.092l-15.111,4.885" style="fill:none;stroke-width:7px;stroke:#000;"/><path d="M218.392,275.301l23.457,-48.491l8.566,24.92l12.233,-31.003" style="fill:none;stroke-width:7px;stroke:#000;"/></g></svg>